<?xml version="1.0" encoding="UTF-8"?>
<svg xmlns="http://www.w3.org/2000/svg" width="2500" height="1956" viewBox="0 0 154.9 121.2" role="img" aria-label="Man logo">
  <title>Man Logo</title>
  <path fill="#FFFFFF" d="M9.9,9C8.4,9,7.6,9.9,6.4,11.4c-2,2.6-1.4,2.2-0.9,3.9c0.7,2-0.1,3.5,1.8,4.3c1,0.4,1.7-0.7,2-2
		c0.6,1.6,1,2.6,1.6,4.3c0.6,0.8,1.6,2.2,2.7,1.8c1.6,0,2,1.1,2.3,2.2c-0.5,1.9,0.1,1.8,1.1,3c0.5,0.7,0.9,1.8,1.3,2.1
		c0.2,0.2,0.7,0.6,0.9,0.9c1.3,1.5,2.2,3.2,3.4,4.7c2.3,1.8,3.6,3.1,4.4,4.6c3.7,4.8,4.8,7.3,7.7,9.6c0.7,1.1,2.2,1.9,2.3,3.4
		c0.3,2.7,4.9,6.7,7.6,9.3c4,3.9,7.8,7.1,12.6,10.1c4.4,11.9,8,27.5,6.9,40.5c-0.6,2.5-1.1,4.7-1.6,7.1h42.8c-0.2-1-0.4-2.1-0.6-3.1
		c-0.1-0.7-0.5-1.4-0.5-2.2c0-0.5,0.5-1,0.5-1.5c0.9-13.4,4.8-22.2,7.3-33.8c0.4-1.9,0.9-3.7,0.7-4.5c3-2,5.9-3.3,7.9-6.9
		c4.4-3.2,7.3-6.4,7.8-9.8c1.5-1.6,4.9-1.3,4.9-4.5c1.6-1.6,2.4-2.8,2.7-4.6c2.2-2.8,5.2-5.9,5.3-7.8c3-2.2,4.9-3.7,3.8-6
		c1.7-0.8,2.7-2.6,2.2-4.2c1.3-1.5,3.8-1.7,4.6-3.2c0.4-0.6,1-1.2,1.6-1.8c0.4-0.5,0.8-0.9,1.2-1.3v-2.5c0-0.1,0-0.1,0-0.2v-2.8
		c-0.1-0.1-0.1-0.1-0.2-0.2c-0.2-0.2-0.3-0.4-0.5-0.6c0.1-1.9-0.9-2.7-3-3c0.2-1.8,1-3.9,1.5-5.8c0.9-1.4,1.1-2.5,0.5-3.2
		c-1.2-1.1-2.1,0.1-3.5,2.4c-0.6,1.3-1.5,3.3-2.2,4.6c-0.8,1.1-1.5,2.1-2.2,3.5c-1.3,1.4-2.8,3.9-2.8,5.8c-0.7,0.9-0.8,1.5-1.5,1.9
		c-0.3-0.1-0.8-0.3-1.3,0.3c-0.2,0.8-0.7,1.3-0.7,1.8c-1.5-0.6-2.6,0.7-3.4,3.2c-0.5,0.3-1.8,0.7-1.8,1.1c-0.6,0.5-0.8,1.1-1.4,1.5
		c-1.4,0.2-1.6,1.7-2.4,2.5c-0.8,0.3-1.4,1.3-1.9,2.3c-1-0.1-2.1,1.3-2.6,2.4c-1.9,1.1-2.6,2-3.2,3.6c-1.4,0.1-3.2,0.9-4,2.6
		c-1.5,1-3.2,2.6-3.9,4.2c-1.6,1.1-2.6,2.7-4.2,5.2c-1.7-0.8-3.6-0.8-5.5,0c-1.2-0.3-2.3-0.5-3.5-0.7c-0.7-0.7-0.7-1.4-0.3-2
		c0-0.7,0-1.5,0-2.3c0.5-1.8,1-3.6,1.5-5.5c1.4-3.4,1.4-6.4,0.9-9.6c0.2-2.8-0.1-5.5-1.4-8.4c-3.2-2.3-7.8-4.2-11.7-4.2
		c-4.8-0.6-8.2,0-11.5,1.8c-1.8,1-3.4,2.3-5.2,3.4c-1.9,1-3.6,5.5-5.3,8.2c-1.8,3.9-0.4,4.3,1.3,3.5h0.1c-3.2-0.1-0.3-3,1.1-3.1
		c4.6-0.5,9.6-0.3,16.7,4.1c2.2,1.3,4.4,2.4,6.4,1.8c0.9,1.1-1,2.7-3.1,3.2c-10.2,0.6-19.8,0.6-20.7-1.9c0.4-1.4,0.5-2.9,0.7-4.2
		c-0.2,0-0.3,0-0.5,0.1c0.7,0.4-0.1,3.2-0.3,5.1c-1.3,1-1.7,2.4-1.3,4.3c0.5,1.4,1,2.9,0.5,5c-0.6,0.1-1.2,0.2-1.8,0.3
		c-0.9-0.5-1.6-0.9-2.5-1.3c-1.4-0.3-2.4-0.2-3.3,0.2c-1.3-1.6-2.7-1.7-4-1.5c-0.9-0.7-1.7-1.5-2.6-2.2c-0.2-2.8-1.6-4.7-4.3-4.9
		c-1.1-0.9-2.3-1.3-3.5-2.1c0-0.7,0-1.5,0-2.3c-0.5-1.4-1.2-2.8-3.5-3.5c-1.8,0.2-2.3-1.6-3.4-3.2c-1.4-1.2-2.8-2.6-4.2-3.7
		c-0.7-1-2.1-1.6-2.8-2.6c-1-0.5-1.5-1.3-2.5-1.8c-0.4-0.4-1-1.7-1.6-2.3c-0.6-0.5-1.3-0.4-1.7-0.4c-0.5-0.8-0.7-0.9-1.1-1.7
		c-1-0.8-2-1.5-3.1-2.3c-0.8-1-1.6-2-2.5-3c-0.7-0.5-1.3-1-2-1.5c-1.3-2.6-3.5-5.2-4.6-7.3c-0.8-1.1-0.5-1.9-1.2-3
		c-0.4-0.7-0.7-1.4-1.1-2.1L10.1,0H8.6C8.4,0.5,8.3,1.3,8.3,2.2c0.3,1.3,0.7,2.5,1,3.8C9.3,7.1,9.9,7.8,9.9,9z M68.9,55.2
		c1.4,6.7,13.8,3.9,26.6,0.4c-5.3,2.5-10.9,5.2-18,5C71,60.5,67.5,58.8,68.9,55.2z"/>
</svg>
