<?xml version="1.0" encoding="UTF-8" standalone="no"?>
<svg
   xmlns:dc="http://purl.org/dc/elements/1.1/"
   xmlns:cc="http://creativecommons.org/ns#"
   xmlns:rdf="http://www.w3.org/1999/02/22-rdf-syntax-ns#"
   xmlns:svg="http://www.w3.org/2000/svg"
   xmlns="http://www.w3.org/2000/svg"
   xmlns:sodipodi="http://sodipodi.sourceforge.net/DTD/sodipodi-0.dtd"
   xmlns:inkscape="http://www.inkscape.org/namespaces/inkscape"
   xml:space="preserve"
   width="500"
   height="256.67032"
   style="clip-rule:evenodd;fill-rule:evenodd;image-rendering:optimizeQuality;shape-rendering:geometricPrecision;text-rendering:geometricPrecision"
   viewBox="0 0 132.29166 67.910693"
   id="svg2"
   version="1.1"
   inkscape:version="1.0 (4035a4fb49, 2020-05-01)"
   sodipodi:docname="Kia_2002.svg"><metadata
     id="metadata190"><rdf:RDF><cc:Work
         rdf:about=""><dc:format>image/svg+xml</dc:format><dc:type
           rdf:resource="http://purl.org/dc/dcmitype/StillImage" /><dc:title /></cc:Work></rdf:RDF></metadata><sodipodi:namedview
     pagecolor="#ffffff"
     bordercolor="#666666"
     borderopacity="1"
     objecttolerance="10"
     gridtolerance="10"
     guidetolerance="10"
     inkscape:pageopacity="0"
     inkscape:pageshadow="2"
     inkscape:window-width="1920"
     inkscape:window-height="986"
     id="namedview188"
     showgrid="false"
     fit-margin-top="0"
     fit-margin-left="0"
     fit-margin-right="0"
     fit-margin-bottom="0"
     inkscape:zoom="0.70710678"
     inkscape:cx="840.5402"
     inkscape:cy="448.08665"
     inkscape:window-x="-11"
     inkscape:window-y="-11"
     inkscape:window-maximized="1"
     inkscape:current-layer="svg2"
     units="px"
     inkscape:document-rotation="0" /><defs
     id="defs4"><style
       type="text/css"
       id="style6"><![CDATA[
    .fil0 {fill:#1F1A17}
    .fil2 {fill:#605D5C}
    .fil1 {fill:#9E292B}
   ]]></style></defs><path
     style="fill:#9e292b;stroke-width:0.46875"
     inkscape:connector-curvature="0"
     id="path120"
     d="m 66.424496,60.139728 c -33.407595,0 -60.4870839,-11.648864 -60.4870839,-26.018067 0,-14.368365 27.0794889,-26.0180729 60.4870839,-26.0180729 33.408225,0 60.489184,11.6499179 60.489184,26.0180729 0,14.368992 -27.080959,26.018067 -60.489184,26.018067 z M 66.146152,0 C 29.613004,0 0,15.201932 0,33.954611 c 0,18.752678 29.613004,33.956078 66.146152,33.956078 36.532308,0 66.145518,-15.203193 66.145518,-33.956078 C 132.29188,15.201932 102.67846,0 66.146152,0 Z"
     class="fil1" /><path
     style="fill:#9e292b;stroke-width:0.468726"
     inkscape:connector-curvature="0"
     id="path122"
     d="m 88.016808,20.463274 c 0.169271,-0.488284 -0.176207,-0.997986 -0.60277,-0.997986 l -0.915136,-1.2e-5 c -0.0749,0 -0.137175,-0.0589 -0.137175,-0.134845 v -1.614154 c 0,-0.07847 0.06227,-0.147423 0.137175,-0.147423 l 12.395114,-5.4e-5 c 0.371129,0 0.725846,0.07722 0.848925,0.457773 l 10.753239,31.381012 c 0.0118,0.05428 0.0221,0.12075 0.0221,0.17797 2.1e-4,0.334064 -0.26404,0.601655 -0.59435,0.601655 l 0.0141,0.0042 -7.7598,0.0063 c -0.37113,0 -0.7713,-0.310922 -0.8929,-0.692527 L 94.638826,29.256446 c -0.04608,-0.174816 -0.153792,-0.322494 -0.340828,-0.322494 -0.188302,0 -0.296864,0.132531 -0.33915,0.322494 l -6.643482,20.248756 c -0.124551,0.381609 -0.524714,0.692578 -0.897314,0.692578 h -7.73519 c -0.331786,0 -0.602766,-0.276488 -0.602766,-0.610552 0,-0.05722 0.0037,-0.11339 0.02147,-0.169134 z"
     class="fil1"
     sodipodi:nodetypes="cccssccccccccccsccccscc" /><path
     sodipodi:nodetypes="cssccccsscccc"
     class="fil1"
     d="m 71.408757,49.513986 c 0,0.378703 -0.303591,0.683705 -0.677663,0.68371 l -7.875436,6.1e-5 c -0.37365,4e-6 -0.677662,-0.305068 -0.677662,-0.683771 l 0.0069,-29.38011 c 0,-0.378701 -0.298336,-0.682925 -0.672618,-0.682925 l -1.04964,0.0082 c -0.07468,0 -0.136331,-0.06375 -0.136331,-0.137805 v -1.61348 c 0,-0.07616 0.06165,-0.139068 0.136331,-0.139068 l 10.26841,0.0042 c 0.374072,0 0.677456,0.306959 0.677456,0.686081 z"
     id="path126-0"
     inkscape:connector-curvature="0"
     style="clip-rule:evenodd;opacity:1;fill:#9e292b;fill-opacity:1;fill-rule:evenodd;stroke-width:0.46875;image-rendering:optimizeQuality;shape-rendering:geometricPrecision;text-rendering:geometricPrecision" /><path
     style="fill:#9e292b;stroke-width:0.46875"
     inkscape:connector-curvature="0"
     id="path126"
     d="m 55.525041,50.196289 h -9.058544 c -0.376387,0 -0.902576,-0.31184 -1.175663,-0.692015 L 36.247016,37.077007 c -0.153164,-0.210463 -0.256015,-0.350089 -0.523239,-0.350089 -0.23164,-2.1e-4 -0.372601,0.176727 -0.372601,0.416361 l 0.0053,12.369235 c 0,0.378703 -0.303593,0.68371 -0.677666,0.68371 l -7.631261,6.1e-5 c -0.373652,4e-6 -0.677666,-0.305068 -0.677666,-0.683771 l 0.0069,-29.380108 c 0,-0.378701 -0.298333,-0.682925 -0.672616,-0.682925 l -1.049638,0.0082 c -0.07469,0 -0.136332,-0.06375 -0.136332,-0.137806 v -1.613479 c 0,-0.07616 0.06164,-0.139068 0.136332,-0.139068 l 10.024236,0.0042 c 0.374073,0 0.677455,0.306958 0.677455,0.686081 l 2e-4,10.375793 c 0,0.238162 0.140961,0.417203 0.373232,0.417203 0.262415,-0.01599 0.402141,-0.186808 0.521767,-0.353246 l 7.498505,-10.432812 c 0.276241,-0.381858 0.802426,-0.687344 1.177972,-0.687344 h 8.674161 c 0.327998,0 0.582572,0.26993 0.582572,0.602978 0,0.122867 -0.02883,0.239213 -0.09047,0.337044 l -9.593145,13.946113 c -0.105405,0.140751 -0.159475,0.25878 -0.159475,0.423305 0,0.164946 0.03997,0.2592 0.146852,0.399741 l 11.480552,15.904631 c 0.261316,0.362015 0.0781,1.005274 -0.443902,1.005274 z"
     class="fil1"
     sodipodi:nodetypes="cccscccssccccsscccccccsssccsccc" /></svg>
