<svg xmlns="http://www.w3.org/2000/svg" viewBox="60 50 72 55">
  <path fill-rule="evenodd" clip-rule="evenodd" d="M98.047 56.542c-3.581 4.416-13.795 18.673-14.959 20.519-2.241 3.537-2.439 5.251-2.505 6.393-.065 1.121-.065 3.142 1.758 4.79 3.054 2.724 7.337 2.284 11.138 2.284h31.305c1.34 0 1.736-.396 2.461-1.362 2.504-3.823 3.625-7.975 3.625-11.688 0-7.953-5.162-17.97-18.234-22.496l-1.473 2.109c10.369 4.92 14.654 11.357 14.654 20.364.066 2.417-.572 5.031-2.154 7.448H93.214c-1.823 0-2.087-2.065-1.428-3.23a121.488 121.488 0 0 1 8.721-13.378c3.076-4.108 6.107-7.953 9.293-11.973.857-1.12.285-2.197-1.428-2.548-3.559-.747-7.271-1.274-11.775-1.274-24.977 0-34.117 14.345-34.117 24.978 0 11.534 9.205 24.913 34.183 24.913 13.862 0 22.936-4.461 28.186-10.194h-5.295c-4.592 4.24-12.479 7.251-22.891 7.251-21.156 0-28.954-11.886-28.954-22.124.153-9.139 8.523-21.749 29.482-22.166.791-.022 1.407.703.856 1.384z"/>
</svg>