<svg xmlns="http://www.w3.org/2000/svg" viewBox="300 0 450 805" width="450" height="805" role="img" aria-label="Black emblem with transparent inner cutouts">
  <path fill="#000000" fill-rule="evenodd" d="M523.958 795.99c3.646 0 6.406-2.76 7.344-5.47L735.521 9.168V7.344c0-4.584-2.709-7.344-5.469-7.344-1.823 0-2.76 0-2.76.937l-203.334 92.5-201.51-92.5C321.51 0 320.573 0 319.688 0c-3.646 0-7.344 2.76-7.344 7.344 0 0 0 .886.937 1.823L518.437 790.52c0 2.708 2.76 5.469 5.521 5.469z M523.958 738.281L709.896 30.208 523.958 114.48 338.906 30.21z"/>
  <path fill="#000000" fill-rule="evenodd" d="M523.958 680.573L687.916 55.885l-163.958 74.167-163.073-74.167z M523.958 152.031l-11.927 58.646-89.74 11.927 89.74 11.875 11.927 56.823 12.813-56.823 89.791-11.875-89.791-11.927z"/>
</svg>
