<svg xmlns="http://www.w3.org/2000/svg" viewBox="0 0 140 172" width="140" height="172" role="img" aria-label="Trailbrake logo">
  <path fill="#ffffff" d="M 6.83 31.33 L 6 32.67 L 6 35.33 L 6.5 36 L 7.33 36 L 32 21.5 L 38.17 18.33 L 43.17 16.5 L 44.5 15.5 L 47 15 L 48.67 13.83 L 51 13.33 L 52.17 12.5 L 55.33 12.17 L 57.33 11 L 62.83 10.67 L 66.83 9.67 L 76.33 9.67 L 79.67 10.5 L 86.67 11 L 88.83 12.17 L 92.17 12.5 L 104.17 17.5 L 109.5 21.67 L 112 25 L 112.33 29 L 111.83 30.83 L 108.33 34.83 L 104.17 37.33 L 98.67 39 L 95.5 39.33 L 70.83 39.67 L 64.83 41.17 L 59.5 43.67 L 56.83 45.83 L 53.67 49.67 L 50.83 55.67 L 50.33 60.5 L 50.5 68.33 L 53.67 83.17 L 59.33 102.83 L 60.5 104.83 L 68.17 129.17 L 69.17 130.83 L 69.67 133.17 L 73.5 142.67 L 78.33 156.67 L 78.5 158.17 L 79.5 159.33 L 81.17 164.17 L 81.83 164.67 L 122.33 164.5 L 122.67 164 L 116.17 152.33 L 111.17 142 L 107.5 136 L 102 124.83 L 92.5 107.5 L 92 105.67 L 88.33 99.67 L 82.33 88.17 L 80.17 83.33 L 75.5 75.33 L 70.33 64.5 L 65 55.33 L 62.5 50.17 L 62.33 46.83 L 63.5 45.33 L 64.67 44.67 L 68.83 44.17 L 76.33 44.67 L 89.83 47 L 98.33 47.5 L 109.67 47.33 L 118 45.83 L 122.33 44.33 L 125.17 42.67 L 130.17 38.33 L 131.67 35.83 L 132.17 33.83 L 131.83 29.67 L 130.33 26.67 L 127.33 23.33 L 124 20.67 L 118.17 17.5 L 112.5 15.5 L 111 14.5 L 79.5 7.17 L 72.67 6.33 L 64.67 6.17 L 54.67 7.33 L 46.17 10 L 37.5 14.33 L 36.5 15.33 Z"/>
  <path fill="#ffffff" d="M 77.17 11.67 L 64.67 11.67 L 62.17 12.67 L 58.5 13 L 56 14 L 52.67 14.33 L 51 15.67 L 48.67 16 L 47.17 17 L 45.5 17.33 L 33.33 23.5 L 25.17 28.83 L 16 33.67 L 10.67 37.33 L 6.83 39.33 L 6 40.83 L 6 50.17 L 7.33 50.67 L 38.5 30.17 L 46.67 25.33 L 56.5 18.5 L 61.67 15.5 L 63.67 15 L 67.5 14.83 L 72.33 15.33 L 74.5 16.33 L 80.5 17.5 L 92 21 L 94.5 21.33 L 101.33 24 L 104 26.83 L 104.17 28 L 103.33 29.5 L 102.33 30.5 L 99.33 31.67 L 93.17 31.67 L 74.83 29.67 L 63.83 29.67 L 53.83 31.33 L 47 33.5 L 41.67 36.67 L 38 39.5 L 34.33 43.67 L 32.83 46.83 L 31.5 51.83 L 31.67 55.33 L 35.33 71.67 L 36.17 77.33 L 37.17 80.33 L 37.5 83.83 L 40 93.17 L 40.33 96.67 L 41.5 99.83 L 46.17 122.33 L 46.5 126 L 47.5 128.67 L 49.17 138.17 L 50.33 141.33 L 50.67 145 L 51.83 148.5 L 54.5 160.67 L 54.67 163.17 L 55.5 164.5 L 69.5 164.67 L 70.17 164.33 L 70.17 163.5 L 69.17 162.17 L 68.67 158.83 L 67.5 156.17 L 61.33 133.17 L 60.5 131.33 L 60 127.83 L 58.83 125.33 L 58.5 122.83 L 56.17 116 L 55.67 112.67 L 54.67 110.33 L 51.17 95.17 L 50 92.17 L 48.33 83.67 L 47.33 81 L 47 77.5 L 45.83 73.17 L 45.33 65.83 L 45.67 58 L 47.33 52.67 L 50.33 47.83 L 54.67 43.33 L 58.67 40.67 L 62.67 38.83 L 71.67 36.83 L 90.17 37.17 L 95.17 36.83 L 100.83 35.67 L 106.5 32.33 L 108.33 30 L 109 27.83 L 108.67 25.33 L 108 24 L 106 21.67 L 102.17 19 L 95.67 16 L 93 15.5 L 91.33 14.33 L 88.5 14.17 L 84.67 13 L 80.33 12.67 Z"/>
</svg>
