<?xml version='1.0' encoding='UTF-8'?>
<svg xmlns="http://www.w3.org/2000/svg" width="2500" height="517.59" viewBox="0 0 52.1650 10.8000" role="img" aria-label="F Lights logo">
  <title>F Lights</title>
  <g id="f-logo" transform="translate(0.45 0.55) scale(0.06203394)">
    <path fill="#110e0c" d="M0 102.96h67.13v52.599H0zM0 52.175h114.32v37.059H0zM0 .248h145.9v37.059H0z"/>
  </g>
  <g id="lights-wordmark" transform="translate(-63.47731726 -341.59994177)">
    <path id="lights-59181" fill="#110e0c" fill-rule="nonzero" d="m 77.83483,344.15002 h -2.3763 l -1.1312,6.26007 h 6.0752 l 0.2263,-1.25193 h -3.6988 z"/>
    <path id="lights-59179" fill="#110e0c" fill-rule="nonzero" d="m 81.33233,350.41009 h 2.3763 l 1.1311,-6.26011 h -2.3763 z"/>
    <path id="lights-59183" fill="#110e0c" fill-rule="nonzero" d="m 87.55873,349.15809 0.678601,-3.75603 h 4.131001 l 0.226197,-1.25211 H 86.08733 l -1.1312,6.26011 h 6.5072 l 0.688199,-3.80834 h -3.3929 l -0.226298,1.25197 h 1.016698 l -0.235698,1.3044 z"/>
    <path id="lights-59185" fill="#110e0c" fill-rule="nonzero" d="m 97.81483,344.15002 -0.413999,2.29168 h -1.7546 l 0.414099,-2.29168 h -2.3764 l -1.130999,6.26007 h 2.3763 l 0.490699,-2.71642 h 1.7546 l -0.490699,2.71642 h 2.3763 l 1.130999,-6.26007 z"/>
    <path id="lights-59177" fill="#110e0c" fill-rule="nonzero" d="m 107.08433,345.40203 0.2263,-1.25198 h -6.5073 l -0.2262,1.25198 h 2.0655 l -0.9048,5.00813 h 2.3763 l 0.9048,-5.00813 z"/>
    <path id="lights-59187" fill="#110e0c" fill-rule="nonzero" d="m 107.91563,344.15002 -0.6786,3.75602 h 4.1309 l -0.2263,1.25212 h -4.1309 l -0.2263,1.25193 h 6.5074 l 0.6787,-3.75602 h -4.1311 l 0.2263,-1.25211 h 4.1309 c 0.086,-0.48504 0.1815,-0.85704 0.6457,-1.25194 z"/>
  </g>
</svg>
